<svg width="101" height="92" viewBox="0 0 101 92" fill="none" xmlns="http://www.w3.org/2000/svg">
<g id="Frame 512849" clip-path="url(#clip0_1_1738)">
<g id="&#208;&#160;&#208;&#142;&#208;&#160;&#194;&#187;&#208;&#160;&#209;&#149;&#208;&#160;&#226;&#132;&#150; 1">
<g id="Group">
<g id="Group_2" opacity="0.16">
<g id="Vector" style="mix-blend-mode:multiply" opacity="0.2">
<path d="M101 56.9374L62.5752 87.8046L31.1766 91.8048L-1 66.4363L60.0593 31.9928L101 56.9374Z" fill="white"/>
</g>
<path id="Vector_2" style="mix-blend-mode:multiply" opacity="0.23" d="M62.5156 87.506L31.6604 91.3718L-0.367188 66.2959L60.2287 32.2614L100.827 56.8686L62.5156 87.506Z" fill="url(#paint0_linear_1_1738)"/>
<path id="Vector_3" style="mix-blend-mode:multiply" opacity="0.26" d="M62.4599 87.2108L32.1509 90.9393L0.269531 66.159L60.3992 32.5304L100.659 56.7973L62.4599 87.2108Z" fill="url(#paint1_linear_1_1738)"/>
<path id="Vector_4" style="mix-blend-mode:multiply" opacity="0.29" d="M62.3991 86.9151L32.6336 90.5063L0.898438 66.0185L60.5674 32.8019L100.485 56.7285L62.3991 86.9151Z" fill="url(#paint2_linear_1_1738)"/>
<path id="Vector_5" style="mix-blend-mode:multiply" opacity="0.33" d="M62.3434 86.6194L33.1214 90.0733L1.53516 65.8811L60.7407 33.0704L100.316 56.6597L62.3434 86.6194Z" fill="url(#paint3_linear_1_1738)"/>
<path id="Vector_6" style="mix-blend-mode:multiply" opacity="0.36" d="M62.2879 86.3212L33.612 89.6408L2.17203 65.7411L60.9113 33.3424L100.147 56.5884L62.2879 86.3212Z" fill="url(#paint4_linear_1_1738)"/>
<path id="Vector_7" style="mix-blend-mode:multiply" opacity="0.39" d="M62.2215 86.0251L34.0918 89.2073L2.80078 65.6002L61.0766 33.6105L99.9704 56.5191L62.2215 86.0251Z" fill="url(#paint5_linear_1_1738)"/>
<path id="Vector_8" style="mix-blend-mode:multiply" opacity="0.42" d="M62.1697 85.7299L34.5835 88.7748L3.44141 65.4632L61.2538 33.8824L99.8055 56.4478L62.1697 85.7299Z" fill="url(#paint6_linear_1_1738)"/>
<path id="Vector_9" style="mix-blend-mode:multiply" opacity="0.45" d="M62.1062 85.4347L35.0662 88.3423L4.07031 65.3232L61.4165 34.1515L99.6289 56.3795L62.1062 85.4347Z" fill="url(#paint7_linear_1_1738)"/>
<path id="Vector_10" style="mix-blend-mode:multiply" opacity="0.48" d="M62.0532 85.136L35.5567 87.9093L4.70703 65.1857L61.5926 34.423L99.4629 56.3107L62.0532 85.136Z" fill="url(#paint8_linear_1_1738)"/>
<path id="Vector_11" style="mix-blend-mode:multiply" opacity="0.52" d="M61.9936 84.8404L36.0405 87.4763L5.33984 65.0453L61.7619 34.6915L99.2902 56.2389L61.9936 84.8404Z" fill="url(#paint9_linear_1_1738)"/>
<path id="Vector_12" style="mix-blend-mode:multiply" opacity="0.55" d="M61.934 84.5447L36.5271 87.0433L5.97266 64.9079L61.9313 34.9601L99.1175 56.1701L61.934 84.5447Z" fill="url(#paint10_linear_1_1738)"/>
<path id="Vector_13" style="mix-blend-mode:multiply" opacity="0.58" d="M61.8783 84.246L37.0149 86.6103L6.60938 64.7674L62.1018 35.2316L98.9487 56.0983L61.8783 84.246Z" fill="url(#paint11_linear_1_1738)"/>
<path id="Vector_14" style="mix-blend-mode:multiply" opacity="0.61" d="M61.8148 83.9508L37.4976 86.1778L7.23828 64.6305L62.2672 35.5006L98.7721 56.03L61.8148 83.9508Z" fill="url(#paint12_linear_1_1738)"/>
<path id="Vector_15" style="mix-blend-mode:multiply" opacity="0.64" d="M61.7619 83.6556L37.9881 85.7453L7.875 64.4905L62.4433 35.7726L98.606 55.9617L61.7619 83.6556Z" fill="url(#paint13_linear_1_1738)"/>
<path id="Vector_16" style="mix-blend-mode:multiply" opacity="0.67" d="M61.7023 83.3595L38.4719 85.3118L8.50781 64.3525L62.6099 36.0406L98.4333 55.8894L61.7023 83.3595Z" fill="url(#paint14_linear_1_1738)"/>
<path id="Vector_17" style="mix-blend-mode:multiply" opacity="0.71" d="M61.6477 83.0613L38.9664 84.8793L9.14844 64.2125L62.7871 36.3126L98.2684 55.8211L61.6477 83.0613Z" fill="url(#paint15_linear_1_1738)"/>
<path id="Vector_18" style="mix-blend-mode:multiply" opacity="0.74" d="M61.5841 82.7656L39.4461 84.4463L9.77716 64.0751L62.9523 36.5812L98.0916 55.7493L61.5841 82.7656Z" fill="url(#paint16_linear_1_1738)"/>
<path id="Vector_19" style="mix-blend-mode:multiply" opacity="0.77" d="M61.5246 82.4694L39.9302 84.0128L10.4102 63.9341L63.1191 36.8522L97.9191 55.68L61.5246 82.4694Z" fill="url(#paint17_linear_1_1738)"/>
</g>
<g id="Group_3">
<path id="Vector_20" d="M19.6133 59.5536L60.4636 84.0563L99.8264 57.3961V37.0594L58.8437 35.5786L19.6133 39.2138V59.5536Z" fill="url(#paint18_linear_1_1738)"/>
<path id="Vector_21" style="mix-blend-mode:multiply" opacity="0.5" d="M60.082 83.7766L60.4608 84.056L99.8236 57.3957V56.958L60.082 83.7766Z" fill="url(#paint19_linear_1_1738)"/>
<path id="Vector_22" d="M19.582 39.1859L60.4324 63.6855L99.7952 37.0284L60.4324 15.2109L19.582 39.1859Z" fill="url(#paint20_linear_1_1738)"/>
<path id="Vector_23" d="M60.4313 15.2109L60.4005 15.2296L99.1042 36.6807L59.7969 63.3037L60.4313 63.6855L99.7941 37.0284L60.4313 15.2109Z" fill="white"/>
<g id="Group_4">
<g id="Group_5">
<path id="Vector_24" style="mix-blend-mode:multiply" opacity="0.4" d="M35.8785 69.6398L39.7836 71.7228V51.3985L81.29 26.7344L77.3755 24.5645L77.3447 24.5831L35.8477 48.9337L35.8969 48.9647H35.8785V69.6398Z" fill="url(#paint21_linear_1_1738)"/>
<path id="Vector_25" d="M36.2027 69.9659L40.1048 72.0521V51.7278L81.6142 27.0606L77.6967 24.8906L77.6659 24.9093L36.1719 49.263L36.2212 49.2909L36.2027 49.294V69.9659Z" fill="url(#paint22_linear_1_1738)"/>
<path id="Vector_26" style="mix-blend-mode:screen" d="M36.2027 49.2443L36.1719 49.2629L36.2027 49.2815V49.2443ZM36.2027 69.969L40.1048 72.052V71.7229L36.2027 69.6399V69.969ZM81.3278 26.9053L40.1048 51.4018V51.7277L81.6111 27.0636L81.3247 26.9053H81.3278Z" fill="url(#paint23_linear_1_1738)"/>
</g>
<g id="Group_6">
<path id="Vector_27" style="mix-blend-mode:multiply" opacity="0.4" d="M84.224 67.8328L80.3219 70.2418V50.0448L38.8125 27.3457L42.73 25.1758L42.7608 25.1944L84.2548 47.58L84.2055 47.611H84.224V67.8328Z" fill="url(#paint24_linear_1_1738)"/>
<g id="Vector_28">
<path d="M84.5092 67.5472L80.6071 69.9561V49.7623L39.0977 27.0601L43.0152 24.8901L43.0459 24.9088L84.54 47.2974L84.4907 47.3254L84.5092 47.3285V67.5472Z" fill="url(#paint25_linear_1_1738)"/>
<path d="M84.5092 67.5472L80.6071 69.9561V49.7623L39.0977 27.0601L43.0152 24.8901L43.0459 24.9088L84.54 47.2974L84.4907 47.3254L84.5092 47.3285V67.5472Z" fill="url(#paint26_linear_1_1738)"/>
</g>
<path id="Vector_29" style="mix-blend-mode:screen" d="M88.142 45.261L88.1728 45.2423L88.142 45.2237V45.261ZM42.7305 25.005L84.2368 47.7041V47.375L43.0169 24.8467L42.7305 25.005Z" fill="url(#paint27_linear_1_1738)"/>
</g>
<g id="Group_7">
<path id="Vector_30" d="M58.1978 36.7951C58.1978 36.7951 53.2455 50.4791 55.9957 60.2796C58.746 70.08 64.6992 88.6721 64.6992 88.6721L72.22 91.9999C72.22 91.9999 64.4959 69.5119 61.5362 59.5314C58.4934 49.2715 60.0302 36.792 60.0302 36.792H58.1947L58.1978 36.7951Z" fill="url(#paint28_linear_1_1738)"/>
<path id="Vector_31" style="mix-blend-mode:screen" opacity="0.7" d="M61.2144 59.5314C64.0263 69.0059 71.1314 89.7617 71.8397 91.8292L72.2216 91.9999C72.2216 91.9999 64.4975 69.5119 61.5378 59.5314C58.495 49.2715 60.0318 36.792 60.0318 36.792H59.7084C59.7084 36.792 58.1716 49.2715 61.2144 59.5314Z" fill="url(#paint29_linear_1_1738)"/>
</g>
<path id="Vector_32" d="M54.7023 17.39C55.925 16.319 57.1045 15.1859 58.2348 14C59.1926 15.3752 59.4575 17.2503 59.707 18.9173C59.9595 20.6092 60.0827 22.3445 60.0827 24.0581C60.0827 27.3643 59.8486 36.7953 59.8486 36.7953H58.0131C58.0131 36.7953 58.3796 31.4527 57.0953 26.8738C56.6179 25.1695 56.467 23.3814 56.1436 21.6398C55.9034 20.3422 55.7186 18.2188 54.6992 17.3931L54.7023 17.39Z" fill="url(#paint30_linear_1_1738)"/>
<g id="Group_8">
<path id="Vector_33" d="M59.3809 38.8633C59.3809 38.8633 59.9322 43.9544 56.7015 48.9214C53.4708 53.8853 50.8653 56.7413 50.8653 56.7413C50.8653 56.7413 45.9161 54.5558 46.5105 53.9598C47.1049 53.3638 59.3779 38.8633 59.3779 38.8633H59.3809Z" fill="url(#paint31_linear_1_1738)"/>
<path id="Vector_34" style="mix-blend-mode:screen" opacity="0.5" d="M56.7054 48.3463C53.4747 53.3102 50.8692 56.1662 50.8692 56.1662C50.8692 56.1662 47.4753 54.6668 46.6468 53.8131C46.5852 53.8814 46.539 53.9342 46.5144 53.959C45.92 54.5551 50.8692 56.7405 50.8692 56.7405C50.8692 56.7405 53.4747 53.8845 56.7054 48.9207C59.2617 44.9905 59.4495 40.9828 59.4156 39.4834C59.3787 41.2808 58.9845 44.8446 56.7054 48.3495V48.3463Z" fill="url(#paint32_linear_1_1738)"/>
<path id="Vector_35" d="M50.8682 56.7411C50.8682 56.1451 50.9021 53.2922 53.2427 49.1944C55.5864 45.0935 60.3293 43.2216 60.0521 40.0521C59.7749 36.8825 60.7666 35.6904 60.7666 35.6904H57.847C57.847 35.6904 53.64 43.6345 50.8682 44.4292C48.0964 45.2239 44.7302 48.4028 44.533 51.7772L44.3359 55.1548L50.8682 56.7442V56.7411Z" fill="url(#paint33_linear_1_1738)"/>
<path id="Vector_36" style="mix-blend-mode:screen" opacity="0.7" d="M60.7705 35.6841H60.4102C60.4102 35.6841 59.4216 36.8762 59.6957 40.0457C59.9728 43.2153 55.23 45.0903 52.8862 49.1881C50.6349 53.1244 50.5179 55.9059 50.5117 56.6478L50.869 56.7348C50.869 56.1387 50.9029 53.2858 53.2435 49.1881C55.5872 45.0872 60.3301 43.2153 60.0529 40.0457C59.7757 36.8762 60.7674 35.6841 60.7674 35.6841H60.7705Z" fill="url(#paint34_linear_1_1738)"/>
</g>
<g id="Group_9">
<path id="Vector_37" d="M71.9584 17.9338C71.9584 17.9338 74.6194 19.3897 72.2233 21.7801C66.5719 27.4269 60.7695 36.2775 60.7695 36.2775C60.7695 36.2775 75.0782 23.3447 75.0782 20.3862C75.0782 17.4278 74.7117 16.6393 71.9584 17.9338Z" fill="url(#paint35_linear_1_1738)"/>
<path id="Vector_38" d="M60.7666 32.912C60.7666 32.912 60.4001 23.4809 66.6366 18.3028C72.8732 13.1248 75.0753 18.3028 75.0753 18.3028C75.0753 18.3028 74.3577 17.6944 71.9554 19.5973C69.3869 21.6307 66.6089 22.7762 65.9314 26.6039C64.9243 32.3035 60.7666 36.7955 60.7666 36.7955L58.0625 35.6873C58.0625 35.6873 60.6865 34.9732 60.7666 32.912Z" fill="url(#paint36_linear_1_1738)"/>
<path id="Vector_39" style="mix-blend-mode:screen" opacity="0.7" d="M71.8662 19.4265C69.2237 21.4692 66.3656 22.6209 65.6696 26.4641C64.6995 31.8253 60.8898 36.1187 60.4062 36.6464L60.7666 36.7923C60.7666 36.7923 64.9243 32.3003 65.9314 26.6007C66.6089 22.773 69.3869 21.6275 71.9555 19.5942C74.3577 17.6943 75.0753 18.2996 75.0753 18.2996C75.0753 18.2996 75.0383 18.2127 74.9583 18.0699C74.6718 17.9768 73.8033 17.9271 71.8662 19.4234V19.4265Z" fill="url(#paint37_linear_1_1738)"/>
</g>
<path id="Vector_40" d="M60.4933 38.0153C61.1616 37.6955 61.4019 37.0591 61.7837 36.5128C62.0948 36.0688 62.5044 35.6622 62.2673 35.2244C62.064 34.8488 61.6113 34.6781 61.3433 34.3614C61.1031 34.082 60.7397 33.9299 60.3824 33.784C59.8589 33.5698 58.9688 33.1569 58.2759 33.5915C57.663 33.9765 56.5173 35.7646 56.5235 36.3762C56.5235 36.6338 56.6559 36.8449 56.8037 37.0281C57.2996 37.6272 59.3107 38.5834 60.4933 38.0153Z" fill="url(#paint38_linear_1_1738)"/>
</g>
</g>
</g>
</g>
</g>
<defs>
<linearGradient id="paint0_linear_1_1738" x1="-0.110636" y1="84.8521" x2="120.202" y2="43.1315" gradientUnits="userSpaceOnUse">
<stop offset="0.18" stop-color="#FCFCFC"/>
<stop offset="0.33" stop-color="#F9F9F9"/>
<stop offset="1" stop-color="#F7F7F7"/>
</linearGradient>
<linearGradient id="paint1_linear_1_1738" x1="0.53436" y1="84.5987" x2="119.894" y2="43.2105" gradientUnits="userSpaceOnUse">
<stop offset="0.18" stop-color="#FAFAFA"/>
<stop offset="0.21" stop-color="#F8F8F8"/>
<stop offset="0.45" stop-color="#F1F1F1"/>
<stop offset="1" stop-color="#EFEFEF"/>
</linearGradient>
<linearGradient id="paint2_linear_1_1738" x1="1.1743" y1="84.3478" x2="119.579" y2="43.2892" gradientUnits="userSpaceOnUse">
<stop offset="0.18" stop-color="#F7F7F7"/>
<stop offset="0.28" stop-color="#F0F0F0"/>
<stop offset="0.49" stop-color="#E9E9E9"/>
<stop offset="1" stop-color="#E7E7E7"/>
</linearGradient>
<linearGradient id="paint3_linear_1_1738" x1="1.82205" y1="84.0969" x2="119.272" y2="43.368" gradientUnits="userSpaceOnUse">
<stop offset="0.18" stop-color="#F4F4F4"/>
<stop offset="0.33" stop-color="#E8E8E8"/>
<stop offset="0.53" stop-color="#E1E1E1"/>
<stop offset="1" stop-color="#DFDFDF"/>
</linearGradient>
<linearGradient id="paint4_linear_1_1738" x1="2.4672" y1="83.8435" x2="118.962" y2="43.4468" gradientUnits="userSpaceOnUse">
<stop offset="0.18" stop-color="#F2F2F2"/>
<stop offset="0.22" stop-color="#ECECEC"/>
<stop offset="0.36" stop-color="#E0E0E0"/>
<stop offset="0.55" stop-color="#D9D9D9"/>
<stop offset="1" stop-color="#D7D7D7"/>
</linearGradient>
<linearGradient id="paint5_linear_1_1738" x1="3.10699" y1="83.5921" x2="118.647" y2="43.5251" gradientUnits="userSpaceOnUse">
<stop offset="0.18" stop-color="#F0F0F0"/>
<stop offset="0.26" stop-color="#E4E4E4"/>
<stop offset="0.39" stop-color="#D8D8D8"/>
<stop offset="0.57" stop-color="#D1D1D1"/>
<stop offset="1" stop-color="#CFCFCF"/>
</linearGradient>
<linearGradient id="paint6_linear_1_1738" x1="3.75589" y1="83.3387" x2="118.34" y2="43.604" gradientUnits="userSpaceOnUse">
<stop offset="0.18" stop-color="#EDEDED"/>
<stop offset="0.28" stop-color="#DCDCDC"/>
<stop offset="0.41" stop-color="#D0D0D0"/>
<stop offset="0.59" stop-color="#C9C9C9"/>
<stop offset="1" stop-color="#C7C7C7"/>
</linearGradient>
<linearGradient id="paint7_linear_1_1738" x1="4.39307" y1="83.0883" x2="118.025" y2="43.686" gradientUnits="userSpaceOnUse">
<stop offset="0.18" stop-color="#EAEAEA"/>
<stop offset="0.2" stop-color="#E6E6E6"/>
<stop offset="0.3" stop-color="#D4D4D4"/>
<stop offset="0.43" stop-color="#C8C8C8"/>
<stop offset="0.6" stop-color="#C1C1C1"/>
<stop offset="1" stop-color="#BFBFBF"/>
</linearGradient>
<linearGradient id="paint8_linear_1_1738" x1="5.04358" y1="82.8374" x2="117.72" y2="43.7647" gradientUnits="userSpaceOnUse">
<stop offset="0.18" stop-color="#E8E8E8"/>
<stop offset="0.22" stop-color="#DEDEDE"/>
<stop offset="0.32" stop-color="#CCCCCC"/>
<stop offset="0.45" stop-color="#C0C0C0"/>
<stop offset="0.61" stop-color="#B9B9B9"/>
<stop offset="1" stop-color="#B7B7B7"/>
</linearGradient>
<linearGradient id="paint9_linear_1_1738" x1="5.68467" y1="82.5835" x2="117.406" y2="43.8432" gradientUnits="userSpaceOnUse">
<stop offset="0.18" stop-color="#E5E5E5"/>
<stop offset="0.23" stop-color="#D7D7D7"/>
<stop offset="0.33" stop-color="#C5C5C5"/>
<stop offset="0.46" stop-color="#B9B9B9"/>
<stop offset="0.62" stop-color="#B2B2B2"/>
<stop offset="1" stop-color="#B0B0B0"/>
</linearGradient>
<linearGradient id="paint10_linear_1_1738" x1="6.32576" y1="82.3326" x2="117.095" y2="43.922" gradientUnits="userSpaceOnUse">
<stop offset="0.18" stop-color="#E3E3E3"/>
<stop offset="0.25" stop-color="#CFCFCF"/>
<stop offset="0.35" stop-color="#BDBDBD"/>
<stop offset="0.47" stop-color="#B1B1B1"/>
<stop offset="0.63" stop-color="#AAAAAA"/>
<stop offset="1" stop-color="#A8A8A8"/>
</linearGradient>
<linearGradient id="paint11_linear_1_1738" x1="6.97351" y1="82.0817" x2="116.785" y2="44.0007" gradientUnits="userSpaceOnUse">
<stop offset="0.18" stop-color="#DEDEDE"/>
<stop offset="0.27" stop-color="#C7C7C7"/>
<stop offset="0.36" stop-color="#B5B5B5"/>
<stop offset="0.48" stop-color="#A9A9A9"/>
<stop offset="0.64" stop-color="#A2A2A2"/>
<stop offset="1" stop-color="#A0A0A0"/>
</linearGradient>
<linearGradient id="paint12_linear_1_1738" x1="7.6107" y1="81.8283" x2="116.47" y2="44.0797" gradientUnits="userSpaceOnUse">
<stop offset="0.18" stop-color="#DDDDDD"/>
<stop offset="0.2" stop-color="#D6D6D6"/>
<stop offset="0.28" stop-color="#BFBFBF"/>
<stop offset="0.37" stop-color="#ADADAD"/>
<stop offset="0.49" stop-color="#A1A1A1"/>
<stop offset="0.64" stop-color="#9A9A9A"/>
<stop offset="1" stop-color="#989898"/>
</linearGradient>
<linearGradient id="paint13_linear_1_1738" x1="8.26121" y1="81.5779" x2="116.162" y2="44.1615" gradientUnits="userSpaceOnUse">
<stop offset="0.18" stop-color="#DBDBDB"/>
<stop offset="0.21" stop-color="#CECECE"/>
<stop offset="0.29" stop-color="#B7B7B7"/>
<stop offset="0.39" stop-color="#A5A5A5"/>
<stop offset="0.5" stop-color="#999999"/>
<stop offset="0.65" stop-color="#929292"/>
<stop offset="1" stop-color="#909090"/>
</linearGradient>
<linearGradient id="paint14_linear_1_1738" x1="8.90229" y1="81.3265" x2="115.851" y2="44.2398" gradientUnits="userSpaceOnUse">
<stop offset="0.18" stop-color="#D8D8D8"/>
<stop offset="0.23" stop-color="#C6C6C6"/>
<stop offset="0.3" stop-color="#AFAFAF"/>
<stop offset="0.4" stop-color="#9D9D9D"/>
<stop offset="0.51" stop-color="#919191"/>
<stop offset="0.65" stop-color="#8A8A8A"/>
<stop offset="1" stop-color="#888888"/>
</linearGradient>
<linearGradient id="paint15_linear_1_1738" x1="9.5512" y1="81.0731" x2="115.545" y2="44.3187" gradientUnits="userSpaceOnUse">
<stop offset="0.18" stop-color="#D6D6D6"/>
<stop offset="0.24" stop-color="#BEBEBE"/>
<stop offset="0.32" stop-color="#A7A7A7"/>
<stop offset="0.41" stop-color="#959595"/>
<stop offset="0.51" stop-color="#898989"/>
<stop offset="0.66" stop-color="#828282"/>
<stop offset="1" stop-color="#808080"/>
</linearGradient>
<linearGradient id="paint16_linear_1_1738" x1="10.191" y1="80.8222" x2="115.23" y2="44.3975" gradientUnits="userSpaceOnUse">
<stop offset="0.18" stop-color="#D2D2D2"/>
<stop offset="0.25" stop-color="#B6B6B6"/>
<stop offset="0.33" stop-color="#9F9F9F"/>
<stop offset="0.41" stop-color="#8D8D8D"/>
<stop offset="0.52" stop-color="#818181"/>
<stop offset="0.66" stop-color="#7A7A7A"/>
<stop offset="1" stop-color="#787878"/>
</linearGradient>
<linearGradient id="paint17_linear_1_1738" x1="10.8322" y1="80.5678" x2="114.918" y2="44.4754" gradientUnits="userSpaceOnUse">
<stop offset="0.18" stop-color="#D1D1D1"/>
<stop offset="0.19" stop-color="#CACACA"/>
<stop offset="0.26" stop-color="#AEAEAE"/>
<stop offset="0.34" stop-color="#979797"/>
<stop offset="0.42" stop-color="#858585"/>
<stop offset="0.53" stop-color="#797979"/>
<stop offset="0.67" stop-color="#727272"/>
<stop offset="1" stop-color="#707070"/>
</linearGradient>
<linearGradient id="paint18_linear_1_1738" x1="99.8264" y1="59.8175" x2="19.6133" y2="59.8175" gradientUnits="userSpaceOnUse">
<stop stop-color="#ECECEC"/>
<stop offset="0.49" stop-color="#B1B1B1"/>
<stop offset="0.5" stop-color="#B0B0B0"/>
<stop offset="1" stop-color="#C2C2C2"/>
</linearGradient>
<linearGradient id="paint19_linear_1_1738" x1="101.333" y1="52.7516" x2="73.0453" y2="75.978" gradientUnits="userSpaceOnUse">
<stop stop-color="#BBBBBB"/>
<stop offset="1" stop-color="#5E5E5E"/>
</linearGradient>
<linearGradient id="paint20_linear_1_1738" x1="19.582" y1="39.4498" x2="99.7952" y2="39.4498" gradientUnits="userSpaceOnUse">
<stop stop-color="#E9E9E9"/>
<stop offset="1" stop-color="#EBEBEB"/>
</linearGradient>
<linearGradient id="paint21_linear_1_1738" x1="33.5717" y1="67.9789" x2="63.6354" y2="32.2966" gradientUnits="userSpaceOnUse">
<stop stop-color="#592429"/>
<stop offset="0.59" stop-color="#8C5147"/>
<stop offset="1" stop-color="#AC6D5A"/>
</linearGradient>
<linearGradient id="paint22_linear_1_1738" x1="28.706" y1="59.8736" x2="63.0769" y2="33.1876" gradientUnits="userSpaceOnUse">
<stop stop-color="#541900"/>
<stop offset="0.15577" stop-color="#D28C23"/>
<stop offset="0.25334" stop-color="#D28C23"/>
<stop offset="0.40717" stop-color="#FCE47D"/>
<stop offset="0.48822" stop-color="#874612"/>
<stop offset="0.75577" stop-color="#FCE47D"/>
<stop offset="0.84615" stop-color="#BE7F23"/>
<stop offset="1" stop-color="#874612"/>
</linearGradient>
<linearGradient id="paint23_linear_1_1738" x1="41.7494" y1="68.7241" x2="71.8194" y2="15.9623" gradientUnits="userSpaceOnUse">
<stop stop-color="#5B4B59"/>
<stop offset="0.04" stop-color="#5A353E"/>
<stop offset="0.07" stop-color="#59282E"/>
<stop offset="0.09" stop-color="#592429"/>
<stop offset="0.15" stop-color="#5A2529"/>
<stop offset="0.17" stop-color="#612B2D"/>
<stop offset="0.19" stop-color="#6D3533"/>
<stop offset="0.2" stop-color="#7E443B"/>
<stop offset="0.21" stop-color="#945746"/>
<stop offset="0.22" stop-color="#AF6F53"/>
<stop offset="0.23" stop-color="#CF8A62"/>
<stop offset="0.24" stop-color="#F4AB75"/>
<stop offset="0.26" stop-color="#E69D6C"/>
<stop offset="0.31" stop-color="#C17955"/>
<stop offset="0.38" stop-color="#873F30"/>
<stop offset="0.39" stop-color="#7E362B"/>
<stop offset="0.44" stop-color="#80392C"/>
<stop offset="0.49" stop-color="#884233"/>
<stop offset="0.53" stop-color="#96533D"/>
<stop offset="0.57" stop-color="#A96A4C"/>
<stop offset="0.6" stop-color="#C28760"/>
<stop offset="0.63" stop-color="#E0AB77"/>
<stop offset="0.66" stop-color="#FFD190"/>
<stop offset="0.68" stop-color="#EFBD81"/>
<stop offset="0.73" stop-color="#C6895C"/>
<stop offset="0.77" stop-color="#A86441"/>
<stop offset="0.8" stop-color="#954D31"/>
<stop offset="0.82" stop-color="#8F452B"/>
<stop offset="0.9" stop-color="#9A553E"/>
<stop offset="1" stop-color="#AC6D5A"/>
</linearGradient>
<linearGradient id="paint24_linear_1_1738" x1="85.8286" y1="66.7587" x2="56.6602" y2="32.1404" gradientUnits="userSpaceOnUse">
<stop stop-color="#592429"/>
<stop offset="0.59" stop-color="#8C5147"/>
<stop offset="1" stop-color="#AC6D5A"/>
</linearGradient>
<linearGradient id="paint25_linear_1_1738" x1="78.4913" y1="66.9014" x2="49.3969" y2="15.8528" gradientUnits="userSpaceOnUse">
<stop stop-color="#D5942A"/>
<stop offset="0.01" stop-color="#DB9C6F"/>
<stop offset="0.08" stop-color="#EABA94"/>
<stop offset="0.15" stop-color="#F5D0AF"/>
<stop offset="0.21" stop-color="#FCDDBF"/>
<stop offset="0.25" stop-color="#FFE2C5"/>
<stop offset="0.26" stop-color="#FCD4B1"/>
<stop offset="0.27" stop-color="#F8C297"/>
<stop offset="0.29" stop-color="#F6B584"/>
<stop offset="0.3" stop-color="#F4AD78"/>
<stop offset="0.32" stop-color="#F4AB75"/>
<stop offset="0.36" stop-color="#E69D6C"/>
<stop offset="0.43" stop-color="#C17955"/>
<stop offset="0.52" stop-color="#873F30"/>
<stop offset="0.54" stop-color="#7E362B"/>
<stop offset="0.58" stop-color="#80392C"/>
<stop offset="0.61" stop-color="#884233"/>
<stop offset="0.63" stop-color="#96533D"/>
<stop offset="0.66" stop-color="#A96A4C"/>
<stop offset="0.68" stop-color="#C28760"/>
<stop offset="0.7" stop-color="#E0AB77"/>
<stop offset="0.72" stop-color="#FFD190"/>
<stop offset="0.79" stop-color="#E4B17F"/>
<stop offset="0.88" stop-color="#C68C6A"/>
<stop offset="0.95" stop-color="#B2755E"/>
<stop offset="1" stop-color="#AC6D5A"/>
</linearGradient>
<linearGradient id="paint26_linear_1_1738" x1="39.0909" y1="47.4233" x2="84.54" y2="47.4233" gradientUnits="userSpaceOnUse">
<stop stop-color="#541900"/>
<stop offset="0.15577" stop-color="#D28C23"/>
<stop offset="0.25334" stop-color="#D28C23"/>
<stop offset="0.40717" stop-color="#FCE47D"/>
<stop offset="0.48822" stop-color="#874612"/>
<stop offset="0.75577" stop-color="#FCE47D"/>
<stop offset="0.84615" stop-color="#BE7F23"/>
<stop offset="1" stop-color="#874612"/>
</linearGradient>
<linearGradient id="paint27_linear_1_1738" x1="74.0889" y1="50.5228" x2="53.8251" y2="14.9638" gradientUnits="userSpaceOnUse">
<stop stop-color="#5B4B59"/>
<stop offset="0.04" stop-color="#5A353E"/>
<stop offset="0.07" stop-color="#59282E"/>
<stop offset="0.09" stop-color="#592429"/>
<stop offset="0.15" stop-color="#5A2529"/>
<stop offset="0.17" stop-color="#612B2D"/>
<stop offset="0.19" stop-color="#6D3533"/>
<stop offset="0.2" stop-color="#7E443B"/>
<stop offset="0.21" stop-color="#945746"/>
<stop offset="0.22" stop-color="#AF6F53"/>
<stop offset="0.23" stop-color="#CF8A62"/>
<stop offset="0.24" stop-color="#F4AB75"/>
<stop offset="0.26" stop-color="#E69D6C"/>
<stop offset="0.31" stop-color="#C17955"/>
<stop offset="0.38" stop-color="#873F30"/>
<stop offset="0.39" stop-color="#7E362B"/>
<stop offset="0.44" stop-color="#80392C"/>
<stop offset="0.49" stop-color="#884233"/>
<stop offset="0.53" stop-color="#96533D"/>
<stop offset="0.57" stop-color="#A96A4C"/>
<stop offset="0.6" stop-color="#C28760"/>
<stop offset="0.63" stop-color="#E0AB77"/>
<stop offset="0.66" stop-color="#FFD190"/>
<stop offset="0.68" stop-color="#EFBD81"/>
<stop offset="0.73" stop-color="#C6895C"/>
<stop offset="0.77" stop-color="#A86441"/>
<stop offset="0.8" stop-color="#954D31"/>
<stop offset="0.82" stop-color="#8F452B"/>
<stop offset="0.9" stop-color="#9A553E"/>
<stop offset="1" stop-color="#AC6D5A"/>
</linearGradient>
<linearGradient id="paint28_linear_1_1738" x1="51.4853" y1="29.9275" x2="69.5729" y2="90.7391" gradientUnits="userSpaceOnUse">
<stop stop-color="#541900"/>
<stop offset="0.15577" stop-color="#D28C23"/>
<stop offset="0.25334" stop-color="#D28C23"/>
<stop offset="0.40717" stop-color="#FCE47D"/>
<stop offset="0.48822" stop-color="#874612"/>
<stop offset="0.75577" stop-color="#FCE47D"/>
<stop offset="0.84615" stop-color="#BE7F23"/>
<stop offset="1" stop-color="#874612"/>
</linearGradient>
<linearGradient id="paint29_linear_1_1738" x1="65.4122" y1="85.1331" x2="66.5668" y2="30.4378" gradientUnits="userSpaceOnUse">
<stop stop-color="#D89667"/>
<stop offset="0.01" stop-color="#DB9C6F"/>
<stop offset="0.08" stop-color="#EABA94"/>
<stop offset="0.15" stop-color="#F5D0AF"/>
<stop offset="0.21" stop-color="#FCDDBF"/>
<stop offset="0.25" stop-color="#FFE2C5"/>
<stop offset="0.26" stop-color="#FCD4B1"/>
<stop offset="0.27" stop-color="#F8C297"/>
<stop offset="0.29" stop-color="#F6B584"/>
<stop offset="0.3" stop-color="#F4AD78"/>
<stop offset="0.32" stop-color="#F4AB75"/>
<stop offset="0.36" stop-color="#E69D6C"/>
<stop offset="0.43" stop-color="#C17955"/>
<stop offset="0.52" stop-color="#873F30"/>
<stop offset="0.54" stop-color="#7E362B"/>
<stop offset="0.58" stop-color="#80392C"/>
<stop offset="0.61" stop-color="#884233"/>
<stop offset="0.63" stop-color="#96533D"/>
<stop offset="0.66" stop-color="#A96A4C"/>
<stop offset="0.68" stop-color="#C28760"/>
<stop offset="0.7" stop-color="#E0AB77"/>
<stop offset="0.72" stop-color="#FFD190"/>
<stop offset="0.79" stop-color="#E4B17F"/>
<stop offset="0.88" stop-color="#C68C6A"/>
<stop offset="0.95" stop-color="#B2755E"/>
<stop offset="1" stop-color="#AC6D5A"/>
</linearGradient>
<linearGradient id="paint30_linear_1_1738" x1="50.4944" y1="-10.4991" x2="60.5489" y2="36.3834" gradientUnits="userSpaceOnUse">
<stop stop-color="#541900"/>
<stop offset="0.15577" stop-color="#D28C23"/>
<stop offset="0.25334" stop-color="#D28C23"/>
<stop offset="0.40717" stop-color="#FCE47D"/>
<stop offset="0.48822" stop-color="#874612"/>
<stop offset="0.75577" stop-color="#FCE47D"/>
<stop offset="0.84615" stop-color="#BE7F23"/>
<stop offset="1" stop-color="#874612"/>
</linearGradient>
<linearGradient id="paint31_linear_1_1738" x1="59.2269" y1="39.7449" x2="48.2217" y2="56.3692" gradientUnits="userSpaceOnUse">
<stop stop-color="#D89667"/>
<stop offset="0.02" stop-color="#CE8B60"/>
<stop offset="0.09" stop-color="#AB6649"/>
<stop offset="0.16" stop-color="#924B38"/>
<stop offset="0.22" stop-color="#833B2E"/>
<stop offset="0.27" stop-color="#7E362B"/>
<stop offset="0.36" stop-color="#80392C"/>
<stop offset="0.44" stop-color="#884233"/>
<stop offset="0.5" stop-color="#96533D"/>
<stop offset="0.56" stop-color="#A96A4C"/>
<stop offset="0.62" stop-color="#C28760"/>
<stop offset="0.68" stop-color="#E0AB77"/>
<stop offset="0.72" stop-color="#FFD190"/>
<stop offset="0.79" stop-color="#D49660"/>
<stop offset="0.86" stop-color="#AE6237"/>
<stop offset="0.92" stop-color="#923D19"/>
<stop offset="0.97" stop-color="#822606"/>
<stop offset="1" stop-color="#7C1E00"/>
</linearGradient>
<linearGradient id="paint32_linear_1_1738" x1="58.966" y1="40.1446" x2="48.2348" y2="56.355" gradientUnits="userSpaceOnUse">
<stop stop-color="#D89667"/>
<stop offset="0.02" stop-color="#CE8B60"/>
<stop offset="0.09" stop-color="#AB6649"/>
<stop offset="0.16" stop-color="#924B38"/>
<stop offset="0.22" stop-color="#833B2E"/>
<stop offset="0.27" stop-color="#7E362B"/>
<stop offset="0.36" stop-color="#80392C"/>
<stop offset="0.44" stop-color="#884233"/>
<stop offset="0.5" stop-color="#96533D"/>
<stop offset="0.56" stop-color="#A96A4C"/>
<stop offset="0.62" stop-color="#C28760"/>
<stop offset="0.68" stop-color="#E0AB77"/>
<stop offset="0.72" stop-color="#FFD190"/>
<stop offset="0.79" stop-color="#D49660"/>
<stop offset="0.86" stop-color="#AE6237"/>
<stop offset="0.92" stop-color="#923D19"/>
<stop offset="0.97" stop-color="#822606"/>
<stop offset="1" stop-color="#7C1E00"/>
</linearGradient>
<linearGradient id="paint33_linear_1_1738" x1="38.6108" y1="59.8737" x2="57.1083" y2="37.0588" gradientUnits="userSpaceOnUse">
<stop stop-color="#541900"/>
<stop offset="0.15577" stop-color="#D28C23"/>
<stop offset="0.25334" stop-color="#D28C23"/>
<stop offset="0.40717" stop-color="#FCE47D"/>
<stop offset="0.48822" stop-color="#874612"/>
<stop offset="0.75577" stop-color="#FCE47D"/>
<stop offset="0.84615" stop-color="#BE7F23"/>
<stop offset="1" stop-color="#874612"/>
</linearGradient>
<linearGradient id="paint34_linear_1_1738" x1="50.8536" y1="55.1298" x2="62.5736" y2="34.5625" gradientUnits="userSpaceOnUse">
<stop stop-color="#D89667"/>
<stop offset="0.01" stop-color="#DB9C6F"/>
<stop offset="0.08" stop-color="#EABA94"/>
<stop offset="0.15" stop-color="#F5D0AF"/>
<stop offset="0.21" stop-color="#FCDDBF"/>
<stop offset="0.25" stop-color="#FFE2C5"/>
<stop offset="0.26" stop-color="#FCD4B1"/>
<stop offset="0.27" stop-color="#F8C297"/>
<stop offset="0.29" stop-color="#F6B584"/>
<stop offset="0.3" stop-color="#F4AD78"/>
<stop offset="0.32" stop-color="#F4AB75"/>
<stop offset="0.36" stop-color="#E69D6C"/>
<stop offset="0.43" stop-color="#C17955"/>
<stop offset="0.52" stop-color="#873F30"/>
<stop offset="0.54" stop-color="#7E362B"/>
<stop offset="0.58" stop-color="#80392C"/>
<stop offset="0.61" stop-color="#884233"/>
<stop offset="0.63" stop-color="#96533D"/>
<stop offset="0.66" stop-color="#A96A4C"/>
<stop offset="0.68" stop-color="#C28760"/>
<stop offset="0.7" stop-color="#E0AB77"/>
<stop offset="0.72" stop-color="#FFD190"/>
<stop offset="0.79" stop-color="#E4B17F"/>
<stop offset="0.88" stop-color="#C68C6A"/>
<stop offset="0.95" stop-color="#B2755E"/>
<stop offset="1" stop-color="#AC6D5A"/>
</linearGradient>
<linearGradient id="paint35_linear_1_1738" x1="63.6307" y1="36.2061" x2="75.2572" y2="15.8089" gradientUnits="userSpaceOnUse">
<stop stop-color="#D89667"/>
<stop offset="0.02" stop-color="#CE8B60"/>
<stop offset="0.09" stop-color="#AB6649"/>
<stop offset="0.16" stop-color="#924B38"/>
<stop offset="0.22" stop-color="#833B2E"/>
<stop offset="0.27" stop-color="#7E362B"/>
<stop offset="0.36" stop-color="#80392C"/>
<stop offset="0.44" stop-color="#884233"/>
<stop offset="0.5" stop-color="#96533D"/>
<stop offset="0.56" stop-color="#A96A4C"/>
<stop offset="0.62" stop-color="#C28760"/>
<stop offset="0.68" stop-color="#E0AB77"/>
<stop offset="0.72" stop-color="#FFD190"/>
<stop offset="0.79" stop-color="#D49660"/>
<stop offset="0.86" stop-color="#AE6237"/>
<stop offset="0.92" stop-color="#923D19"/>
<stop offset="0.97" stop-color="#822606"/>
<stop offset="1" stop-color="#7C1E00"/>
</linearGradient>
<linearGradient id="paint36_linear_1_1738" x1="52.9718" y1="36.4161" x2="75.456" y2="10.64" gradientUnits="userSpaceOnUse">
<stop stop-color="#541900"/>
<stop offset="0.15577" stop-color="#D28C23"/>
<stop offset="0.25334" stop-color="#D28C23"/>
<stop offset="0.40717" stop-color="#FCE47D"/>
<stop offset="0.48822" stop-color="#874612"/>
<stop offset="0.75577" stop-color="#FCE47D"/>
<stop offset="0.84615" stop-color="#BE7F23"/>
<stop offset="1" stop-color="#874612"/>
</linearGradient>
<linearGradient id="paint37_linear_1_1738" x1="72.1926" y1="18.6287" x2="60.3395" y2="40.1091" gradientUnits="userSpaceOnUse">
<stop stop-color="#D89667"/>
<stop offset="0.01" stop-color="#DB9C6F"/>
<stop offset="0.08" stop-color="#EABA94"/>
<stop offset="0.15" stop-color="#F5D0AF"/>
<stop offset="0.21" stop-color="#FCDDBF"/>
<stop offset="0.25" stop-color="#FFE2C5"/>
<stop offset="0.26" stop-color="#FCD4B1"/>
<stop offset="0.27" stop-color="#F8C297"/>
<stop offset="0.29" stop-color="#F6B584"/>
<stop offset="0.3" stop-color="#F4AD78"/>
<stop offset="0.32" stop-color="#F4AB75"/>
<stop offset="0.36" stop-color="#E69D6C"/>
<stop offset="0.43" stop-color="#C17955"/>
<stop offset="0.52" stop-color="#873F30"/>
<stop offset="0.54" stop-color="#7E362B"/>
<stop offset="0.58" stop-color="#80392C"/>
<stop offset="0.61" stop-color="#884233"/>
<stop offset="0.63" stop-color="#96533D"/>
<stop offset="0.66" stop-color="#A96A4C"/>
<stop offset="0.68" stop-color="#C28760"/>
<stop offset="0.7" stop-color="#E0AB77"/>
<stop offset="0.72" stop-color="#FFD190"/>
<stop offset="0.79" stop-color="#E4B17F"/>
<stop offset="0.88" stop-color="#C68C6A"/>
<stop offset="0.95" stop-color="#B2755E"/>
<stop offset="1" stop-color="#AC6D5A"/>
</linearGradient>
<linearGradient id="paint38_linear_1_1738" x1="56.5226" y1="35.7947" x2="71.3041" y2="32.4738" gradientUnits="userSpaceOnUse">
<stop stop-color="#541900"/>
<stop offset="0.15577" stop-color="#D28C23"/>
<stop offset="0.25334" stop-color="#D28C23"/>
<stop offset="0.40717" stop-color="#FCE47D"/>
<stop offset="0.48822" stop-color="#874612"/>
<stop offset="0.75577" stop-color="#FCE47D"/>
<stop offset="0.84615" stop-color="#BE7F23"/>
<stop offset="1" stop-color="#874612"/>
</linearGradient>
<clipPath id="clip0_1_1738">
<rect width="101" height="92" fill="white"/>
</clipPath>
</defs>
</svg>
