<svg width="101" height="92" viewBox="0 0 101 92" fill="none" xmlns="http://www.w3.org/2000/svg">
<g id="Frame 512848" clip-path="url(#clip0_1_1840)">
<g id="&#208;&#160;&#208;&#142;&#208;&#160;&#194;&#187;&#208;&#160;&#209;&#149;&#208;&#160;&#226;&#132;&#150; 2">
<g id="Group" opacity="0.16">
<g id="Vector" style="mix-blend-mode:multiply" opacity="0.2">
<path d="M102.058 55.9244L63.6116 88.7461L32.195 92.9996L0 66.0248L61.0943 29.4004L102.058 55.9244Z" fill="white"/>
</g>
<path id="Vector_2" style="mix-blend-mode:multiply" opacity="0.23" d="M63.5555 88.4287L32.6827 92.5393L0.636719 65.8756L61.2673 29.686L101.889 55.8514L63.5555 88.4287Z" fill="url(#paint0_linear_1_1840)"/>
<path id="Vector_3" style="mix-blend-mode:multiply" opacity="0.26" d="M63.4955 88.1143L33.1692 92.079L1.26953 65.7296L61.4336 29.9717L101.716 55.7751L63.4955 88.1143Z" fill="url(#paint1_linear_1_1840)"/>
<path id="Vector_4" style="mix-blend-mode:multiply" opacity="0.29" d="M63.4344 87.8008L33.6518 91.6194L1.89844 65.5811L61.6016 30.2612L101.542 55.7028L63.4344 87.8008Z" fill="url(#paint2_linear_1_1840)"/>
<path id="Vector_5" style="mix-blend-mode:multiply" opacity="0.33" d="M63.3783 87.486L34.1395 91.1586L2.53516 65.4345L61.7746 30.5464L101.372 55.6293L63.3783 87.486Z" fill="url(#paint3_linear_1_1840)"/>
<path id="Vector_6" style="mix-blend-mode:multiply" opacity="0.36" d="M63.3222 87.1693L34.6299 90.6991L3.17188 65.286L61.9449 30.8359L101.203 55.5538L63.3222 87.1693Z" fill="url(#paint4_linear_1_1840)"/>
<path id="Vector_7" style="mix-blend-mode:multiply" opacity="0.39" d="M63.2633 86.854L35.1176 90.2378L3.80859 65.1358L62.1178 31.1206L101.034 55.4798L63.2633 86.854Z" fill="url(#paint5_linear_1_1840)"/>
<path id="Vector_8" style="mix-blend-mode:multiply" opacity="0.42" d="M63.2072 86.5405L35.6052 89.7782L4.44531 64.9905L62.2909 31.4102L100.865 55.4043L63.2072 86.5405Z" fill="url(#paint6_linear_1_1840)"/>
<path id="Vector_9" style="mix-blend-mode:multiply" opacity="0.45" d="M63.1472 86.2262L36.0917 89.3179L5.07812 64.8413L62.4572 31.6958L100.692 55.3312L63.1472 86.2262Z" fill="url(#paint7_linear_1_1840)"/>
<path id="Vector_10" style="mix-blend-mode:multiply" opacity="0.48" d="M63.09 85.909L36.5783 88.8578L5.71094 64.6955L62.629 31.9849L100.521 55.2584L63.09 85.909Z" fill="url(#paint8_linear_1_1840)"/>
<path id="Vector_11" style="mix-blend-mode:multiply" opacity="0.52" d="M63.03 85.5942L37.062 88.3971L6.34375 64.5458L62.7982 32.27L100.348 55.1817L63.03 85.5942Z" fill="url(#paint9_linear_1_1840)"/>
<path id="Vector_12" style="mix-blend-mode:multiply" opacity="0.55" d="M62.9701 85.2799L37.5486 87.9367L6.97665 64.3997L62.9673 32.5557L100.175 55.1087L62.9701 85.2799Z" fill="url(#paint10_linear_1_1840)"/>
<path id="Vector_13" style="mix-blend-mode:multiply" opacity="0.58" d="M62.9139 84.9627L38.0362 87.4767L7.61328 64.2507L63.1375 32.8447L100.006 55.0327L62.9139 84.9627Z" fill="url(#paint11_linear_1_1840)"/>
<path id="Vector_14" style="mix-blend-mode:multiply" opacity="0.61" d="M62.85 84.6489L38.5188 87.0169L8.24219 64.1052L63.3027 33.1309L99.8284 54.9602L62.85 84.6489Z" fill="url(#paint12_linear_1_1840)"/>
<path id="Vector_15" style="mix-blend-mode:multiply" opacity="0.64" d="M62.7928 84.3343L39.0054 86.5563L8.875 63.9557L63.4745 33.4194L99.658 54.8869L62.7928 84.3343Z" fill="url(#paint13_linear_1_1840)"/>
<path id="Vector_16" style="mix-blend-mode:multiply" opacity="0.67" d="M62.7367 84.0196L39.493 86.0955L9.51172 63.8091L63.6448 33.7046L99.4888 54.8102L62.7367 84.0196Z" fill="url(#paint14_linear_1_1840)"/>
<path id="Vector_17" style="mix-blend-mode:multiply" opacity="0.71" d="M62.6778 83.7028L39.9835 85.636L10.1484 63.6606L63.8178 33.9941L99.3195 54.7378L62.6778 83.7028Z" fill="url(#paint15_linear_1_1840)"/>
<path id="Vector_18" style="mix-blend-mode:multiply" opacity="0.74" d="M62.6217 83.3886L40.4711 85.1757L10.7852 63.5146L63.9908 34.2798L99.1502 54.6616L62.6217 83.3886Z" fill="url(#paint16_linear_1_1840)"/>
<path id="Vector_19" style="mix-blend-mode:multiply" opacity="0.77" d="M62.5617 83.0735L40.9549 84.7146L11.418 63.3646L64.1571 34.5679L98.9771 54.5878L62.5617 83.0735Z" fill="url(#paint17_linear_1_1840)"/>
</g>
<g id="Group_2">
<g id="Group_3">
<path id="Vector_20" d="M17.0117 59.4401L59.7417 86.6738L100.916 57.0434V38.2896L58.0466 32.791L17.0117 40.6864V59.4401Z" fill="url(#paint18_linear_1_1840)"/>
<path id="Vector_21" style="mix-blend-mode:multiply" opacity="0.5" d="M59.3516 86.3663L59.7472 86.6732L100.922 57.0428V56.5532L59.3516 86.3663Z" fill="url(#paint19_linear_1_1840)"/>
<g id="Vector_22" style="mix-blend-mode:screen">
<path d="M59.7076 14L59.6735 14.0219L100.159 37.8688L59.0391 67.4626L59.7076 67.8865L100.879 38.2524L59.7076 14Z" fill="white"/>
</g>
<path id="Vector_23" d="M59.7076 14L59.6735 14.0219L100.159 37.8688L59.0391 67.4626L59.7076 67.8865L100.879 38.2524L59.7076 14Z" fill="white"/>
<path id="Vector_24" d="M16.9805 40.649L59.7105 67.8863L100.882 38.2523L59.7105 13.9999L16.9805 40.649Z" fill="url(#paint20_linear_1_1840)"/>
<path id="Vector_25" d="M59.7105 14L16.9805 40.6491L59.7105 67.8865L100.885 38.2524L59.7105 14ZM59.6593 66.1729L19.6477 40.6674L59.6593 15.7135L98.2146 38.4241L59.6593 66.1729Z" fill="url(#paint21_linear_1_1840)"/>
<g id="Group 38013">
<path id="Vector_26" d="M19.6406 40.6672L59.6523 66.1728L98.2076 38.424L59.6523 15.7134L19.6406 40.6672Z" fill="url(#paint22_linear_1_1840)"/>
</g>
</g>
</g>
</g>
</g>
<defs>
<linearGradient id="paint0_linear_1_1840" x1="0.893417" y1="85.6067" x2="122.773" y2="45.8366" gradientUnits="userSpaceOnUse">
<stop offset="0.18" stop-color="#FCFCFC"/>
<stop offset="0.33" stop-color="#F9F9F9"/>
<stop offset="1" stop-color="#F7F7F7"/>
</linearGradient>
<linearGradient id="paint1_linear_1_1840" x1="1.53451" y1="85.3369" x2="122.449" y2="45.8836" gradientUnits="userSpaceOnUse">
<stop offset="0.18" stop-color="#FAFAFA"/>
<stop offset="0.21" stop-color="#F8F8F8"/>
<stop offset="0.45" stop-color="#F1F1F1"/>
<stop offset="1" stop-color="#EFEFEF"/>
</linearGradient>
<linearGradient id="paint2_linear_1_1840" x1="2.17446" y1="85.0709" x2="122.122" y2="45.9318" gradientUnits="userSpaceOnUse">
<stop offset="0.18" stop-color="#F7F7F7"/>
<stop offset="0.28" stop-color="#F0F0F0"/>
<stop offset="0.49" stop-color="#E9E9E9"/>
<stop offset="1" stop-color="#E7E7E7"/>
</linearGradient>
<linearGradient id="paint3_linear_1_1840" x1="2.82222" y1="84.8038" x2="121.802" y2="45.9789" gradientUnits="userSpaceOnUse">
<stop offset="0.18" stop-color="#F4F4F4"/>
<stop offset="0.33" stop-color="#E8E8E8"/>
<stop offset="0.53" stop-color="#E1E1E1"/>
<stop offset="1" stop-color="#DFDFDF"/>
</linearGradient>
<linearGradient id="paint4_linear_1_1840" x1="3.46722" y1="84.5347" x2="121.48" y2="46.0266" gradientUnits="userSpaceOnUse">
<stop offset="0.18" stop-color="#F2F2F2"/>
<stop offset="0.22" stop-color="#ECECEC"/>
<stop offset="0.36" stop-color="#E0E0E0"/>
<stop offset="0.55" stop-color="#D9D9D9"/>
<stop offset="1" stop-color="#D7D7D7"/>
</linearGradient>
<linearGradient id="paint5_linear_1_1840" x1="4.11498" y1="84.267" x2="121.16" y2="46.0731" gradientUnits="userSpaceOnUse">
<stop offset="0.18" stop-color="#F0F0F0"/>
<stop offset="0.26" stop-color="#E4E4E4"/>
<stop offset="0.39" stop-color="#D8D8D8"/>
<stop offset="0.57" stop-color="#D1D1D1"/>
<stop offset="1" stop-color="#CFCFCF"/>
</linearGradient>
<linearGradient id="paint6_linear_1_1840" x1="4.75997" y1="83.9979" x2="120.837" y2="46.1208" gradientUnits="userSpaceOnUse">
<stop offset="0.18" stop-color="#EDEDED"/>
<stop offset="0.28" stop-color="#DCDCDC"/>
<stop offset="0.41" stop-color="#D0D0D0"/>
<stop offset="0.59" stop-color="#C9C9C9"/>
<stop offset="1" stop-color="#C7C7C7"/>
</linearGradient>
<linearGradient id="paint7_linear_1_1840" x1="5.40107" y1="83.7312" x2="120.513" y2="46.171" gradientUnits="userSpaceOnUse">
<stop offset="0.18" stop-color="#EAEAEA"/>
<stop offset="0.2" stop-color="#E6E6E6"/>
<stop offset="0.3" stop-color="#D4D4D4"/>
<stop offset="0.43" stop-color="#C8C8C8"/>
<stop offset="0.6" stop-color="#C1C1C1"/>
<stop offset="1" stop-color="#BFBFBF"/>
</linearGradient>
<linearGradient id="paint8_linear_1_1840" x1="6.04768" y1="83.4648" x2="120.192" y2="46.2188" gradientUnits="userSpaceOnUse">
<stop offset="0.18" stop-color="#E8E8E8"/>
<stop offset="0.22" stop-color="#DEDEDE"/>
<stop offset="0.32" stop-color="#CCCCCC"/>
<stop offset="0.45" stop-color="#C0C0C0"/>
<stop offset="0.61" stop-color="#B9B9B9"/>
<stop offset="1" stop-color="#B7B7B7"/>
</linearGradient>
<linearGradient id="paint9_linear_1_1840" x1="6.68878" y1="83.1945" x2="119.866" y2="46.2653" gradientUnits="userSpaceOnUse">
<stop offset="0.18" stop-color="#E5E5E5"/>
<stop offset="0.23" stop-color="#D7D7D7"/>
<stop offset="0.33" stop-color="#C5C5C5"/>
<stop offset="0.46" stop-color="#B9B9B9"/>
<stop offset="0.62" stop-color="#B2B2B2"/>
<stop offset="1" stop-color="#B0B0B0"/>
</linearGradient>
<linearGradient id="paint10_linear_1_1840" x1="7.32996" y1="82.9278" x2="119.542" y2="46.3128" gradientUnits="userSpaceOnUse">
<stop offset="0.18" stop-color="#E3E3E3"/>
<stop offset="0.25" stop-color="#CFCFCF"/>
<stop offset="0.35" stop-color="#BDBDBD"/>
<stop offset="0.47" stop-color="#B1B1B1"/>
<stop offset="0.63" stop-color="#AAAAAA"/>
<stop offset="1" stop-color="#A8A8A8"/>
</linearGradient>
<linearGradient id="paint11_linear_1_1840" x1="7.97763" y1="82.6614" x2="119.22" y2="46.3606" gradientUnits="userSpaceOnUse">
<stop offset="0.18" stop-color="#DEDEDE"/>
<stop offset="0.27" stop-color="#C7C7C7"/>
<stop offset="0.36" stop-color="#B5B5B5"/>
<stop offset="0.48" stop-color="#A9A9A9"/>
<stop offset="0.64" stop-color="#A2A2A2"/>
<stop offset="1" stop-color="#A0A0A0"/>
</linearGradient>
<linearGradient id="paint12_linear_1_1840" x1="8.61481" y1="82.392" x2="118.892" y2="46.4081" gradientUnits="userSpaceOnUse">
<stop offset="0.18" stop-color="#DDDDDD"/>
<stop offset="0.2" stop-color="#D6D6D6"/>
<stop offset="0.28" stop-color="#BFBFBF"/>
<stop offset="0.37" stop-color="#ADADAD"/>
<stop offset="0.49" stop-color="#A1A1A1"/>
<stop offset="0.64" stop-color="#9A9A9A"/>
<stop offset="1" stop-color="#989898"/>
</linearGradient>
<linearGradient id="paint13_linear_1_1840" x1="9.26143" y1="82.1251" x2="118.568" y2="46.4579" gradientUnits="userSpaceOnUse">
<stop offset="0.18" stop-color="#DBDBDB"/>
<stop offset="0.21" stop-color="#CECECE"/>
<stop offset="0.29" stop-color="#B7B7B7"/>
<stop offset="0.39" stop-color="#A5A5A5"/>
<stop offset="0.5" stop-color="#999999"/>
<stop offset="0.65" stop-color="#929292"/>
<stop offset="1" stop-color="#909090"/>
</linearGradient>
<linearGradient id="paint14_linear_1_1840" x1="9.90643" y1="81.8579" x2="118.249" y2="46.505" gradientUnits="userSpaceOnUse">
<stop offset="0.18" stop-color="#D8D8D8"/>
<stop offset="0.23" stop-color="#C6C6C6"/>
<stop offset="0.3" stop-color="#AFAFAF"/>
<stop offset="0.4" stop-color="#9D9D9D"/>
<stop offset="0.51" stop-color="#919191"/>
<stop offset="0.65" stop-color="#8A8A8A"/>
<stop offset="1" stop-color="#888888"/>
</linearGradient>
<linearGradient id="paint15_linear_1_1840" x1="10.5514" y1="81.5888" x2="117.926" y2="46.5527" gradientUnits="userSpaceOnUse">
<stop offset="0.18" stop-color="#D6D6D6"/>
<stop offset="0.24" stop-color="#BEBEBE"/>
<stop offset="0.32" stop-color="#A7A7A7"/>
<stop offset="0.41" stop-color="#959595"/>
<stop offset="0.51" stop-color="#898989"/>
<stop offset="0.66" stop-color="#828282"/>
<stop offset="1" stop-color="#808080"/>
</linearGradient>
<linearGradient id="paint16_linear_1_1840" x1="11.1992" y1="81.3221" x2="117.606" y2="46.6002" gradientUnits="userSpaceOnUse">
<stop offset="0.18" stop-color="#D2D2D2"/>
<stop offset="0.25" stop-color="#B6B6B6"/>
<stop offset="0.33" stop-color="#9F9F9F"/>
<stop offset="0.41" stop-color="#8D8D8D"/>
<stop offset="0.52" stop-color="#818181"/>
<stop offset="0.66" stop-color="#7A7A7A"/>
<stop offset="1" stop-color="#787878"/>
</linearGradient>
<linearGradient id="paint17_linear_1_1840" x1="11.8403" y1="81.0515" x2="117.282" y2="46.6465" gradientUnits="userSpaceOnUse">
<stop offset="0.18" stop-color="#D1D1D1"/>
<stop offset="0.19" stop-color="#CACACA"/>
<stop offset="0.26" stop-color="#AEAEAE"/>
<stop offset="0.34" stop-color="#979797"/>
<stop offset="0.42" stop-color="#858585"/>
<stop offset="0.53" stop-color="#797979"/>
<stop offset="0.67" stop-color="#727272"/>
<stop offset="1" stop-color="#707070"/>
</linearGradient>
<linearGradient id="paint18_linear_1_1840" x1="100.916" y1="59.7324" x2="17.0117" y2="59.7324" gradientUnits="userSpaceOnUse">
<stop stop-color="#ECECEC"/>
<stop offset="0.49" stop-color="#B1B1B1"/>
<stop offset="0.5" stop-color="#B0B0B0"/>
<stop offset="1" stop-color="#C2C2C2"/>
</linearGradient>
<linearGradient id="paint19_linear_1_1840" x1="102.498" y1="51.8803" x2="71.4802" y2="75.8442" gradientUnits="userSpaceOnUse">
<stop stop-color="#BBBBBB"/>
<stop offset="1" stop-color="#5E5E5E"/>
</linearGradient>
<linearGradient id="paint20_linear_1_1840" x1="16.9805" y1="40.9449" x2="100.882" y2="40.9449" gradientUnits="userSpaceOnUse">
<stop stop-color="#E9E9E9"/>
<stop offset="1" stop-color="#EBEBEB"/>
</linearGradient>
<linearGradient id="paint21_linear_1_1840" x1="16.9805" y1="40.9451" x2="100.882" y2="40.9451" gradientUnits="userSpaceOnUse">
<stop stop-color="#E9E9E9"/>
<stop offset="1" stop-color="#EBEBEB"/>
</linearGradient>
<linearGradient id="paint22_linear_1_1840" x1="21.23" y1="40.9449" x2="100.916" y2="40.9449" gradientUnits="userSpaceOnUse">
<stop stop-color="#999999"/>
<stop offset="0.48" stop-color="#868686"/>
<stop offset="0.49" stop-color="#7F7F7F"/>
<stop offset="0.5" stop-color="#7E7E7E"/>
<stop offset="1" stop-color="#BABABA"/>
</linearGradient>
<clipPath id="clip0_1_1840">
<rect width="101" height="92" fill="white"/>
</clipPath>
</defs>
</svg>
