<svg width="177" height="119" viewBox="0 0 177 119" fill="none" xmlns="http://www.w3.org/2000/svg">
<g filter="url(#filter0_f_2_3)">
<path d="M161.077 83.3024C160.564 81.9609 160.529 80.4834 160.978 79.1193C160.109 80.7389 159.032 82.2377 157.775 83.5797C156.734 84.6884 155.509 85.6091 154.154 86.3013C152.907 86.9251 151.556 87.3131 150.168 87.4459C148.73 87.5749 147.28 87.4839 145.869 87.1762C140.235 85.5776 135.042 82.7096 130.687 78.7921C124.944 73.9591 119.553 68.7216 114.555 63.1198C109.207 57.2834 103.982 51.137 99.1555 45.5806C94.3288 40.0241 89.9009 35.0576 86.1461 31.5797C83.3739 29 80.4556 26.5821 77.4056 24.3381C74.599 22.2721 71.665 20.3854 68.6209 18.6892C65.818 17.1269 62.9096 15.7622 59.9169 14.6049C57.155 13.5364 54.3141 12.6846 51.42 12.0572C47.3049 11.1487 43.0818 10.8233 38.8762 11.0904C35.0094 11.3402 31.2098 12.2239 27.6295 13.7062C24.141 15.165 20.9398 17.2331 18.1756 19.8139C15.2663 22.5548 12.8456 25.7721 11.0175 29.3272C11.0047 29.3527 11.0128 29.3965 11 29.4229L12.9871 39.6618C13.7405 41.614 14.395 43.6031 14.9479 45.6214C15.4482 47.0065 15.4713 48.5191 15.0137 49.9189C16.8418 46.3454 19.264 43.109 22.1766 40.3478C24.9414 37.7501 28.1456 35.6646 31.6398 34.1887C35.2217 32.6908 39.0255 31.7929 42.8989 31.5308C47.108 31.2505 51.3356 31.5655 55.4567 32.4665C58.3551 33.0879 61.2005 33.9351 63.9668 35.0005C66.9636 36.154 69.8759 37.5161 72.6823 39.077C75.731 40.7714 78.6693 42.6574 81.4797 44.7235C84.5349 46.969 87.4581 49.3891 90.2347 51.9715C93.9976 55.4596 98.4344 60.4389 103.271 66.0082C108.106 71.5774 113.342 77.7365 118.7 83.5831C123.706 89.1928 129.106 94.4368 134.861 99.2747C139.22 103.195 144.422 106.06 150.064 107.65C151.476 107.955 152.93 108.043 154.369 107.91C155.758 107.773 157.111 107.381 158.358 106.752C159.714 106.055 160.94 105.128 161.981 104.014C163.238 102.665 164.315 101.158 165.186 99.5324L163.039 89.1179C162.28 87.0784 161.526 85.0483 161.077 83.3024Z" fill="url(#paint0_linear_2_3)"/>
</g>
<defs>
<filter id="filter0_f_2_3" x="0" y="0" width="176.186" height="118.97" filterUnits="userSpaceOnUse" color-interpolation-filters="sRGB">
<feFlood flood-opacity="0" result="BackgroundImageFix"/>
<feBlend mode="normal" in="SourceGraphic" in2="BackgroundImageFix" result="shape"/>
<feGaussianBlur stdDeviation="5.5" result="effect1_foregroundBlur_2_3"/>
</filter>
<linearGradient id="paint0_linear_2_3" x1="11" y1="59.4829" x2="165.186" y2="59.4829" gradientUnits="userSpaceOnUse">
<stop stop-color="#541900"/>
<stop offset="0.15577" stop-color="#D28C23"/>
<stop offset="0.25334" stop-color="#D28C23"/>
<stop offset="0.40717" stop-color="#FCE47D"/>
<stop offset="0.48822" stop-color="#874612"/>
<stop offset="0.75577" stop-color="#FCE47D"/>
<stop offset="0.84615" stop-color="#BE7F23"/>
<stop offset="1" stop-color="#874612"/>
</linearGradient>
</defs>
</svg>
