<svg width="42" height="19" viewBox="0 0 42 19" fill="none" xmlns="http://www.w3.org/2000/svg">
<path id="Vector" d="M39.0603 15.3186C38.4889 15.0245 37.9171 14.7321 37.5037 14.4863C37.0903 14.2403 36.8353 14.0412 36.8971 13.9325C36.8251 14.0618 36.7453 14.1867 36.6582 14.3064C36.5733 14.4233 36.4814 14.5349 36.383 14.6406C36.2859 14.7451 36.1828 14.8438 36.0741 14.9362C35.9656 15.0285 35.852 15.1145 35.7339 15.1939C35.411 15.4088 35.0609 15.5796 34.6927 15.7018C34.3039 15.8307 33.9022 15.9173 33.4947 15.9601C33.0607 16.0062 32.6234 16.0144 32.1879 15.9845C31.7278 15.9534 31.2707 15.8885 30.8201 15.7903C30.3273 15.0507 30.0172 14.2047 29.9152 13.322C29.8338 12.4915 29.8347 11.655 29.9179 10.8248C30.0012 9.97926 30.0302 9.12924 30.0046 8.27996C29.9676 7.37511 29.7477 6.48705 29.3581 5.66936C29.2673 5.48822 29.1622 5.31459 29.0439 5.15013C28.919 4.97611 28.7835 4.80994 28.6382 4.65253C28.4893 4.49016 28.328 4.33121 28.1564 4.17569C27.9849 4.02018 27.8031 3.86798 27.6137 3.7192L27.6132 3.70951C27.5456 3.65618 27.4719 3.60602 27.4024 3.55362L24.6872 1.78712L24.4739 1.66742L24.2769 1.55884C24.2118 1.52288 24.1473 1.48752 24.0833 1.45274C24.0195 1.4182 23.9554 1.38438 23.8915 1.35149C23.8275 1.31873 23.7635 1.2872 23.6992 1.25687C23.0928 0.95775 22.4613 0.712427 21.812 0.523762C21.1728 0.340503 20.5199 0.209408 19.8596 0.131757C19.1585 0.0505425 18.4531 0.0112326 17.7473 0.0140204C17.0059 0.0131511 16.2224 0.047135 15.3805 0.104769C15.0009 0.131384 14.0643 0.240203 12.8404 0.409508C11.6163 0.579262 10.104 0.809615 8.57413 1.07933C7.04319 1.34892 5.49429 1.65824 4.19756 1.98496C3.20113 2.18866 2.23783 2.52952 1.33514 2.99783C1.25997 3.04599 1.18961 3.1013 1.12506 3.16296C1.0751 3.20976 1.03406 3.26523 1.00391 3.32669C0.979566 3.37697 0.970784 3.43336 0.978677 3.48868C0.989394 3.54794 1.01613 3.60314 1.056 3.64829C1.28057 3.87069 1.5222 4.07517 1.77868 4.25986C2.14573 4.54109 2.60854 4.87719 3.0792 5.19986L3.87633 5.72415C4.06766 5.84503 4.25615 5.96234 4.42477 6.05886C4.68198 6.23607 4.97181 6.36044 5.27743 6.42474L5.68462 6.40733C5.65001 6.40917 5.6153 6.40838 5.5808 6.40495C5.54405 6.40129 5.50757 6.39535 5.47156 6.38719C5.43392 6.37879 5.39678 6.36832 5.36029 6.35584C5.32329 6.34318 5.28664 6.3285 5.25057 6.31206C5.23762 6.27091 5.23561 6.2271 5.24475 6.18495C5.25574 6.13837 5.27582 6.09442 5.30383 6.05562C5.33831 6.0074 5.37834 5.96341 5.4231 5.92454C5.47834 5.87628 5.53696 5.83202 5.59851 5.79212C6.23037 5.44018 6.9045 5.17014 7.60465 4.98849C8.47868 4.72679 9.50336 4.47647 10.514 4.25394C11.5242 4.03129 12.5207 3.83675 13.3389 3.68632C14.1568 3.53587 14.7969 3.42959 15.0944 3.38355C15.8742 3.26501 16.6804 3.14518 17.5013 3.04072C18.3221 2.93626 19.1577 2.84742 19.9965 2.79073C20.835 2.73416 21.6767 2.7101 22.5102 2.73499C23.3358 2.75635 24.1589 2.83633 24.9732 2.97435C25.2007 3.49323 25.3412 4.04598 25.3892 4.61043C25.4349 5.17195 25.4351 5.73623 25.3897 6.29773C25.3525 6.86725 25.2939 7.44269 25.2616 8.02155C25.2213 8.60319 25.2316 9.18725 25.2925 9.76715C25.3482 10.2855 25.461 10.7962 25.6287 11.2899C25.7935 11.7676 26.0152 12.2238 26.289 12.6486C26.5815 13.0986 26.9202 13.5169 27.2996 13.8965C27.7315 14.3282 28.1955 14.7265 28.6876 15.0879L28.7566 15.1403L28.8239 15.1913L28.8913 15.2426L28.9601 15.2949C29.1265 15.4038 29.2924 15.5124 29.4579 15.6206C29.6235 15.7292 29.7892 15.8374 29.9552 15.9455C30.1211 16.0535 30.2873 16.1613 30.4539 16.2691C30.6208 16.3771 30.7883 16.4849 30.9564 16.5928C31.0529 16.6512 31.1505 16.7096 31.2492 16.7681C31.3478 16.8265 31.4476 16.8847 31.5487 16.9428C31.65 17.0006 31.7527 17.0582 31.8568 17.1154C31.961 17.1728 32.0669 17.2296 32.1745 17.2858C32.8245 17.6322 33.4944 17.9401 34.1806 18.2077C34.8428 18.4688 35.5281 18.667 36.2273 18.7998C36.8695 18.9252 37.5273 18.95 38.177 18.8732C38.7898 18.7991 39.3767 18.5825 39.8907 18.2407C40.0198 18.1533 40.1433 18.058 40.2606 17.9553C40.3824 17.8483 40.4976 17.734 40.6055 17.613C40.7193 17.4854 40.8255 17.3514 40.9236 17.2114C41.0283 17.062 41.1249 16.9072 41.213 16.7474C41.2793 16.625 41.027 16.415 40.6151 16.1618C40.2031 15.9087 39.6319 15.6129 39.0603 15.3186Z" fill="url(#paint0_linear_1_54)"/>
<defs>
<linearGradient id="paint0_linear_1_54" x1="14.3308" y1="16.9271" x2="27.9242" y2="3.33368" gradientUnits="userSpaceOnUse">
<stop stop-color="#541900"/>
<stop offset="0.15577" stop-color="#D28C23"/>
<stop offset="0.25334" stop-color="#D28C23"/>
<stop offset="0.40717" stop-color="#FCE47D"/>
<stop offset="0.48822" stop-color="#874612"/>
<stop offset="0.75577" stop-color="#FCE47D"/>
<stop offset="0.84615" stop-color="#BE7F23"/>
<stop offset="1" stop-color="#874612"/>
</linearGradient>
</defs>
</svg>
